<?xml version="1.0" standalone="no"?>
<!DOCTYPE svg PUBLIC "-//W3C//DTD SVG 20010904//EN"
 "http://www.w3.org/TR/2001/REC-SVG-20010904/DTD/svg10.dtd">
<svg version="1.0" xmlns="http://www.w3.org/2000/svg"
 width="100.000000pt" height="100.000000pt" viewBox="0 0 100.000000 100.000000"
 preserveAspectRatio="xMidYMid meet">
<metadata>
Created by potrace 1.11, written by Peter Selinger 2001-2013
</metadata>
<g transform="translate(0.000000,100.000000) scale(0.100000,-0.100000)"
fill="#000000" stroke="none">
<path d="M424 905 c-64 -19 -99 -42 -142 -90 -101 -114 -95 -252 19 -449 51
-89 152 -234 173 -248 33 -22 54 -6 124 91 178 249 227 408 164 541 -57 122
-211 193 -338 155z m124 -189 c71 -37 72 -138 2 -179 -69 -41 -152 7 -152 89
0 78 80 126 150 90z"/>
</g>
</svg>
